<?xml version="1.0" encoding="UTF-8"?>
<svg width="27px" height="28px" viewBox="0 0 27 28" version="1.1" xmlns="http://www.w3.org/2000/svg" xmlns:xlink="http://www.w3.org/1999/xlink">
    <!-- Generator: Sketch 60.1 (88133) - https://sketch.com -->
    <title>Group 40</title>
    <desc>Created with Sketch.</desc>
    <g id="Page-1" stroke="none" stroke-width="1" fill="none" fill-rule="evenodd">
        <g id="Landing-page-v4" transform="translate(-974.000000, -5720.000000)" fill="#252931" fill-rule="nonzero">
            <g id="Group-26" transform="translate(0.000000, 5690.000000)">
                <g id="Group-23">
                    <g id="Group-38" transform="translate(974.000000, 25.000000)">
                        <g id="Group-40" transform="translate(0.000000, 5.000000)">
                            <g id="137525">
                                <path d="M15.0031957,23.3333333 L0.91623913,23.3333333 C0.59223913,23.3333333 0.329282609,23.0725833 0.329282609,22.75 C0.329282609,22.4274167 0.59223913,22.1666667 0.91623913,22.1666667 L15.0031957,22.1666667 C20.8287391,22.1666667 25.568413,17.45625 25.568413,11.6666667 C25.568413,5.87708333 20.8287391,1.16666667 15.0031957,1.16666667 L0.91623913,1.16666667 C0.59223913,1.16666667 0.329282609,0.905916667 0.329282609,0.583333333 C0.329282609,0.26075 0.59223913,0 0.91623913,0 L15.0031957,0 C21.4761522,0 26.7423261,5.23366667 26.7423261,11.6666667 C26.7423261,18.0996667 21.4755652,23.3333333 15.0031957,23.3333333 Z" id="Path"></path>
                                <polygon id="Path" points="5.19691304 27.8290833 0.0856956522 22.75 5.19691304 17.6709167 6.02686957 18.49575 1.74619565 22.75 6.02686957 27.00425"></polygon>
                            </g>
                            <polygon id="7" points="12.9573864 16 16.5795455 8.80255682 16.5795455 7.27272727 10.4559659 7.27272727 10.4559659 8.78125 14.6704545 8.78125 14.6704545 8.84090909 11.0525568 16"></polygon>
                        </g>
                    </g>
                </g>
            </g>
        </g>
    </g>
</svg>