<?xml version="1.0" encoding="UTF-8"?>
<svg width="35px" height="32px" viewBox="0 0 35 32" version="1.1" xmlns="http://www.w3.org/2000/svg" xmlns:xlink="http://www.w3.org/1999/xlink">
    <!-- Generator: Sketch 58 (84663) - https://sketch.com -->
    <title>134808 copy</title>
    <desc>Created with Sketch.</desc>
    <g id="Page-1" stroke="none" stroke-width="1" fill="none" fill-rule="evenodd">
        <g id="Contact-us" transform="translate(-335.000000, -328.000000)" fill="#252931" fill-rule="nonzero">
            <g id="134808-copy" transform="translate(335.000000, 328.000000)">
                <path d="M5.74626373,13.4836079 L13.2164066,13.4836079 C13.534175,13.4836079 13.791033,13.2261752 13.791033,12.9089815 C13.791033,12.5917877 13.534175,12.3343551 13.2164066,12.3343551 L5.74626373,12.3343551 C5.42849535,12.3343551 5.17163736,12.5917877 5.17163736,12.9089815 C5.17163736,13.2261752 5.42849535,13.4836079 5.74626373,13.4836079 Z" id="Path"></path>
                <path d="M20.6865494,15.7821133 L5.74626373,15.7821133 C5.42849535,15.7821133 5.17163736,16.039546 5.17163736,16.3567397 C5.17163736,16.6739335 5.42849535,16.9313661 5.74626373,16.9313661 L20.6865494,16.9313661 C21.0043178,16.9313661 21.2611758,16.6739335 21.2611758,16.3567397 C21.2611758,16.039546 21.0043178,15.7821133 20.6865494,15.7821133 Z" id="Path"></path>
                <path d="M20.6865494,19.2298716 L5.74626373,19.2298716 C5.42849535,19.2298716 5.17163736,19.4873042 5.17163736,19.804498 C5.17163736,20.1216917 5.42849535,20.3791243 5.74626373,20.3791243 L20.6865494,20.3791243 C21.0043178,20.3791243 21.2611758,20.1216917 21.2611758,19.804498 C21.2611758,19.4873042 21.0043178,19.2298716 20.6865494,19.2298716 Z" id="Path"></path>
                <path d="M31.0711973,0.30742511 L11.4523036,0.267201264 C9.57327538,0.267201264 8.04476923,1.79570742 8.04476923,3.67473566 L8.04476923,6.6191212 L3.40753439,6.62888984 C1.52850615,6.62888984 0,8.157396 0,10.0364242 L0,22.1846004 C0,24.0636286 1.52850615,25.5915602 3.40753439,25.5915602 L6.89551648,25.5915602 L6.89551648,31.3378239 C6.89551648,31.5751446 7.04147158,31.788331 7.26327736,31.8739503 C7.33050865,31.8998085 7.40061306,31.9124503 7.47014286,31.9124503 C7.62873973,31.9124503 7.78446348,31.8463682 7.89536637,31.7245475 L13.4715407,25.5904109 L23.0252788,25.5513363 C24.904307,25.5513363 26.4328132,24.0228302 26.4328132,22.1443766 L26.4328132,22.0794438 L29.4553479,25.404232 C29.5662508,25.5260528 29.7219745,25.5921348 29.8805714,25.5921348 C29.9501012,25.5921348 30.0202056,25.579493 30.0874369,25.5536348 C30.3092427,25.4680155 30.4551978,25.2548291 30.4551978,25.0175084 L30.4551978,19.2712447 L31.070048,19.2712447 C32.9490763,19.2712447 34.4775824,17.7427385 34.4775824,15.8642849 L34.4775824,3.7149595 C34.4775824,1.83650589 32.9496509,0.307999736 31.0711973,0.30742511 Z M25.2835604,22.1438019 C25.2835604,23.3890173 24.2704941,24.4015089 23.0229803,24.4015089 L13.2141081,24.4417328 C13.0532127,24.4423074 12.8992128,24.510688 12.7911831,24.6296356 L8.04476923,29.8512655 L8.04476923,25.0163592 C8.04476923,24.6991654 7.78791124,24.4417328 7.47014286,24.4417328 L3.40753439,24.4417328 C2.16231904,24.4417328 1.14925275,23.4286665 1.14925275,22.1840258 L1.14925275,10.0358496 C1.14925275,8.79063426 2.16231904,7.77756796 3.40868365,7.77756796 L8.6193956,7.76665006 C8.6193956,7.76665006 8.6193956,7.76665006 8.6193956,7.76665006 C8.61997023,7.76665006 8.61997023,7.76665006 8.62054485,7.76665006 L23.0252788,7.73676949 C24.2704941,7.73676949 25.2835604,8.74983579 25.2835604,9.99505114 L25.2835604,20.5917361 L25.2835604,22.1438019 Z M33.3283297,15.8631357 C33.3283297,17.108351 32.3152634,18.1208427 31.070048,18.1208427 L29.8805714,18.1208427 C29.562803,18.1208427 29.305945,18.3782753 29.305945,18.6954691 L29.305945,23.5303754 L26.4328132,20.3699303 L26.4328132,9.99562577 C26.4328132,8.11659753 24.904307,6.58809137 23.0241295,6.58809137 L9.19402198,6.61624806 L9.19402198,3.67416103 C9.19402198,2.42894568 10.2070883,1.41587938 11.4511544,1.41587938 L31.0694734,1.45610323 C31.070048,1.45610323 31.070048,1.45610323 31.0706226,1.45610323 C32.315838,1.45610323 33.3289043,2.46916953 33.3289043,3.71438488 L33.3289043,15.8631357 L33.3283297,15.8631357 Z" id="Shape"></path>
            </g>
        </g>
    </g>
</svg>