<svg xmlns="http://www.w3.org/2000/svg" viewBox="0 0 179.47 74.81"><g id="Layer_2" data-name="Layer 2"><g id="Layer_1-2" data-name="Layer 1"><path d="M166.17,37c2.23,16.55-51.79,27.35-98.28,19.81S.07,19.89,22.25,4.21,164,20.48,166.17,37Z" style="fill:#f2f2f2;opacity:0.26"/><path d="M179.47,68.46c0,3.51-40.18,6.35-89.74,6.35S0,72,0,68.46C0,67.2,5.25,66,14.28,65c-2.45-1.39-2.68-4.7-2.68-8.56h3.69c-.69-.74-1.4-1.46-2-2.15-.91-1-1.87-1.94-2.77-2.92A10,10,0,0,0,7.86,49a16.62,16.62,0,0,1,7.42,6.19c-.17-.38-.34-.76-.5-1.15-.7-1.64-1.42-3.28-2.19-4.9a21.59,21.59,0,0,0-1.19-2.29c-.19-.29-.78-.81-1-1.14a.35.35,0,0,1-.17-.19c.27-.53,3.82,2.94,4.11,3.29a20,20,0,0,1,2.74,4.56l.12.3c0-.37,0-.74.08-1.1a18.19,18.19,0,0,1,1.22-4.26c.38-1,.76-2.86,1.94-3.47.13-.06.17.14.18.28,0-.12-.1-.22-.24-.11-.74.73-.73,2.37-.93,3.29-.27,1.27-.56,2.55-.75,3.83a13.81,13.81,0,0,0-.15,2.22,10.4,10.4,0,0,1,.54-1.05c1.6-2.75,4.35-5,6.88-7.35A10,10,0,0,0,25,47.4l-1.28,1.9a41.45,41.45,0,0,0-2.48,4.21,26.41,26.41,0,0,0-1.26,3h3.32c0,3.33-.17,6.24-1.78,7.88C38,63,62.45,62.12,89.73,62.12,139.29,62.12,179.47,65,179.47,68.46Z" style="fill:#f2f2f2"/><path d="M81.59,35.11a1,1,0,0,0,.91,0c.52-.28,13.26-7,13.26-14.58a6.76,6.76,0,0,0-6.86-6.85h0a8,8,0,0,0-6.85,4.23,8,8,0,0,0-6.86-4.23h0a6.92,6.92,0,0,0-4.73,1.84,6.74,6.74,0,0,0-2.12,5C68.34,28.07,81.07,34.83,81.59,35.11ZM71.8,17a5,5,0,0,1,3.39-1.33h0a6.37,6.37,0,0,1,5.88,5.14,1,1,0,0,0,1.18.71,1,1,0,0,0,.72-.71,6.35,6.35,0,0,1,5.93-5.14h0A5,5,0,0,1,92.3,17a4.72,4.72,0,0,1,1.5,3.57c0,5.65-9.54,11.34-11.75,12.59-2.22-1.25-11.76-6.94-11.76-12.59A4.75,4.75,0,0,1,71.78,17ZM82.05,41.1A18.61,18.61,0,1,0,63.44,22.49,18.61,18.61,0,0,0,82.05,41.1Zm0-35.26A16.65,16.65,0,1,1,65.4,22.49,16.65,16.65,0,0,1,82.05,5.84Zm0,56.8A3.92,3.92,0,1,0,86,58.72,3.92,3.92,0,0,0,82.05,62.64Zm3.91-2a2,2,0,1,1-2,2A2,2,0,0,1,86,60.68Zm11.75,2a3.92,3.92,0,1,0,3.92-3.92A3.93,3.93,0,0,0,97.71,62.64Zm3.92-2a2,2,0,1,1-2,2A2,2,0,0,1,101.63,60.68Zm22.52-37.21h-5.87a2,2,0,0,0-2,2H112.4a1,1,0,0,0-1,.74l-.76,3.17h-9v2h9.79a1,1,0,0,1,0,2H98.69v2h1.8l-1.17,7.83H88.1l-.18-1.13-2,.31.14.82H79.91l-.23-1.17-2,.39L80.07,54a1,1,0,0,0,1,.79h24.22l-.49,1.95H81.07a1,1,0,1,0,0,2h24.48a1,1,0,0,0,1-.74l1-3.92h0l3.74-18.84h.17a2.94,2.94,0,0,0,1.2-5.62l.55-2.21h3.15a2,2,0,0,0,2,1.95h5.87a2,2,0,0,0,2-1.95v-2A2,2,0,0,0,124.15,23.47ZM99,45l-1.18,7.84H89.73L88.42,45Zm6.69,7.84H99.85L101,45h6.29ZM80.26,45H86.4l1.31,7.84H81.83Zm27.42-2H101.3l1.17-7.83h6.78Zm10.6-15.66v-2h5.87v2Zm-10.77-9.8a1,1,0,0,1,1-1h1v-1a1,1,0,0,1,2,0v1h1a1,1,0,0,1,0,2h-1v1a1,1,0,0,1-2,0v-1h-1A1,1,0,0,1,107.51,17.59ZM101.63,6.82a1,1,0,0,1,1-1h1v-1a1,1,0,0,1,2,0v1h1a1,1,0,1,1,0,2h-1v1a1,1,0,0,1-2,0v-1h-1A1,1,0,0,1,101.63,6.82ZM73.23,48.93a1,1,0,0,1-1,1h-1v1a1,1,0,0,1-2,0v-1h-1a1,1,0,1,1,0-2h1V47a1,1,0,0,1,2,0v1h1A1,1,0,0,1,73.23,48.93Z" style="fill:#90c7ff"/></g></g></svg>