<?xml version="1.0" encoding="UTF-8"?>
<svg width="32px" height="32px" viewBox="0 0 32 32" version="1.1" xmlns="http://www.w3.org/2000/svg" xmlns:xlink="http://www.w3.org/1999/xlink">
    <!-- Generator: Sketch 58 (84663) - https://sketch.com -->
    <title>1034131</title>
    <desc>Created with Sketch.</desc>
    <g id="Page-1" stroke="none" stroke-width="1" fill="none" fill-rule="evenodd">
        <g id="Contact-us" transform="translate(-834.000000, -328.000000)" fill="#252931" fill-rule="nonzero">
            <g id="1034131" transform="translate(834.000000, 328.000000)">
                <path d="M30.6854769,24.3100923 L24.3072615,20.0565538 C23.4978462,19.5211077 22.4128615,19.6972923 21.8144615,20.4614154 L19.9565538,22.8502154 C19.7177846,23.1650462 19.2837538,23.2563692 18.9383385,23.0644923 L18.5849231,22.8696615 C17.4133538,22.2310769 15.9556308,21.4360615 13.0185846,18.4979692 C10.0815385,15.5598769 9.28492308,14.1010462 8.64633846,12.9316308 L8.45255385,12.5782154 C8.25803077,12.2328615 8.34763077,11.7969846 8.66258462,11.5563077 L11.0497846,9.69895385 C11.8136,9.10049231 11.9900308,8.01581538 11.4552,7.20615385 L7.20166154,0.827938462 C6.65353846,0.00344615385 5.55384615,-0.244061538 4.70529231,0.266030769 L2.03815385,1.86818462 C1.20012308,2.36086154 0.585292308,3.15876923 0.322584615,4.09470769 C-0.637846154,7.59415385 0.0846769231,13.6336615 8.98141538,22.5314462 C16.0585846,29.6080615 21.3272,31.5112238 24.9484923,31.5112238 C25.7819077,31.5147077 26.6120615,31.4062769 27.4166154,31.1887385 C28.3527385,30.9263385 29.1507692,30.3114462 29.6431385,29.4731692 L31.2468923,26.8076308 C31.7577231,25.9588923 31.5103385,24.8585231 30.6854769,24.3100923 Z M30.3420308,26.2688 L28.7419692,28.9359385 C28.3884308,29.5409846 27.8144615,29.9858462 27.1403077,30.1773538 C23.9097231,31.0643077 18.2656615,30.3296615 9.72443077,21.7884308 C1.1832,13.2472 0.448615385,7.60363077 1.33556923,4.37255385 C1.52732308,3.6976 1.97273846,3.12289231 2.57852308,2.7688 L5.24566154,1.16873846 C5.61384615,0.9472 6.09113846,1.05458462 6.32898462,1.41236923 L8.63956923,4.88135385 L10.5788923,7.79003077 C10.8111385,8.14123077 10.7348308,8.61193846 10.4035077,8.87181538 L8.01575385,10.7291692 C7.28910769,11.2848 7.0816,12.2901538 7.52898462,13.0880615 L7.71858462,13.4325538 C8.38972308,14.6634462 9.22412308,16.1947077 12.2704,19.2404923 C15.3166769,22.2862154 16.8474462,23.1206769 18.0777846,23.7917538 L18.4227692,23.9818462 C19.2206154,24.4291692 20.2260308,24.2217231 20.7816615,23.4950769 L22.6390154,21.1073231 C22.8989538,20.7761846 23.3694769,20.6999385 23.7208,20.9319385 L30.0984615,25.1854769 C30.4564923,25.4231385 30.5638769,25.9006769 30.3420308,26.2688 Z" id="Shape"></path>
                <path d="M17.8560615,5.25476923 C22.7841231,5.26024615 26.7777231,9.25390769 26.7832615,14.1819692 C26.7832615,14.472 27.0183385,14.7070769 27.3083692,14.7070769 C27.5984,14.7070769 27.8334769,14.472 27.8334769,14.1819692 C27.8273846,8.67409231 23.3639385,4.21058462 17.8560615,4.20455385 C17.5660308,4.20455385 17.3309538,4.43963077 17.3309538,4.72966154 C17.3309538,5.01969231 17.5660308,5.25476923 17.8560615,5.25476923 Z" id="Path"></path>
                <path d="M17.8560615,8.40553846 C21.0447385,8.40929231 23.6287385,10.9932923 23.6324923,14.1819692 C23.6324923,14.472 23.8676308,14.7070769 24.1576,14.7070769 C24.4476308,14.7070769 24.6827077,14.472 24.6827077,14.1819692 C24.6783385,10.4134769 21.6244923,7.35963077 17.8560615,7.35532308 C17.5660308,7.35532308 17.3309538,7.5904 17.3309538,7.88043077 C17.3309538,8.17046154 17.5660308,8.40553846 17.8560615,8.40553846 Z" id="Path"></path>
                <path d="M17.8560615,11.5563077 C19.3054154,11.5580308 20.4799385,12.7325538 20.4817231,14.1819692 C20.4817231,14.472 20.7168615,14.7070769 21.0068308,14.7070769 C21.2968,14.7070769 21.5319385,14.472 21.5319385,14.1819692 C21.5296,12.1528 19.8852308,10.5083692 17.8560615,10.5060923 C17.5660308,10.5060923 17.3309538,10.7411692 17.3309538,11.0312 C17.3309538,11.3212308 17.5660308,11.5563077 17.8560615,11.5563077 Z" id="Path"></path>
            </g>
        </g>
    </g>
</svg>