<?xml version="1.0" encoding="UTF-8"?>
<svg width="19px" height="29px" viewBox="0 0 19 29" version="1.1" xmlns="http://www.w3.org/2000/svg" xmlns:xlink="http://www.w3.org/1999/xlink">
    <!-- Generator: Sketch 63.1 (92452) - https://sketch.com -->
    <title>Group 4</title>
    <desc>Created with Sketch.</desc>
    <g id="Page-1" stroke="none" stroke-width="1" fill="none" fill-rule="evenodd">
        <g id="Product-Details-Collapse" transform="translate(-162.000000, -4150.000000)" fill="#252931" fill-rule="nonzero">
            <g id="Group-4" transform="translate(162.000000, 4150.000000)">
                <g id="award-(1)">
                    <path d="M9.62400019,0.44 C14.6961834,0.44 18.8080004,4.55181694 18.8080004,9.62400019 C18.8080004,12.7345142 17.2616488,15.4838585 14.8957579,17.1452209 L16.3391357,28.0303478 C16.3966996,28.4642177 15.9625244,28.7808293 15.57745,28.6249588 L15.4958827,28.5841966 L9.624,25.061 L3.75211768,28.5841966 C3.37678723,28.8093949 2.91372724,28.5366598 2.90385667,28.1213224 L2.90887525,28.0302683 L4.35426308,17.1466394 C1.98723204,15.4854237 0.44,12.7353997 0.44,9.62400019 C0.44,4.55181694 4.55181694,0.44 9.62400019,0.44 Z M13.8496148,17.7802857 C12.5846921,18.4369525 11.1476776,18.8080004 9.62400019,18.8080004 C8.10072729,18.8080004 6.66407126,18.4371495 5.39939298,17.7808086 L4.172,27.025 L9.33588256,23.9278045 C9.48366768,23.8391334 9.66215337,23.8243549 9.82017201,23.8834689 L9.91211781,23.9278045 L15.075,27.025 Z M9.62400019,1.56 C5.17037586,1.56 1.56,5.17037586 1.56,9.62400019 C1.56,14.0776245 5.17037586,17.6880004 9.62400019,17.6880004 C11.2093913,17.6880004 12.6879259,17.230493 13.9347799,16.4403021 C13.9702118,16.4081402 14.0107388,16.3820495 14.0546117,16.3614002 C16.2436097,14.9205521 17.6880004,12.4409539 17.6880004,9.62400019 C17.6880004,5.17037586 14.0776245,1.56 9.62400019,1.56 Z" id="Combined-Shape"></path>
                </g>
                <g id="star-(3)" transform="translate(4.480000, 3.920000)">
                    <path d="M3.431,2.89 L0.85537179,3.26747398 L0.74164189,3.2904929 C0.00642190348,3.48232734 -0.26305997,4.42268949 0.302267201,4.97331816 L2.165,6.788 L1.72575141,9.35191679 L1.71272289,9.46204174 C1.66333584,10.2234278 2.47652853,10.7743053 3.1768113,10.4060336 L5.48,9.195 L7.78318883,10.4060336 L7.88389199,10.4524677 C8.59271609,10.7348082 9.36799823,10.1317444 9.23424873,9.35191679 L8.794,6.788 L10.6577329,4.97331816 L10.7363171,4.88794314 C11.219086,4.30118678 10.8854995,3.38160999 10.1046283,3.26747398 L7.528,2.89 L6.37670742,0.557376085 C6.00987204,-0.185792028 4.9501281,-0.185792028 4.58329272,0.557376085 L3.431,2.89 Z M5.48000007,1 L6.86432009,3.80448004 L9.96000013,4.25696005 L7.7200001,6.43872008 L8.24864011,9.52096013 L5.48000007,8.06496011 L2.71136003,9.52096013 L3.24000003,6.43872008 L1,4.25696005 L4.09568005,3.80448004 L5.48000007,1 Z" id="Path"></path>
                </g>
            </g>
        </g>
    </g>
</svg>